<?xml version="1.0" encoding="utf-8"?>
<!-- Generator: Adobe Illustrator 24.2.0, SVG Export Plug-In . SVG Version: 6.00 Build 0)  -->
<svg version="1.1" xmlns="http://www.w3.org/2000/svg" xmlns:xlink="http://www.w3.org/1999/xlink" x="0px" y="0px"
	 viewBox="0 0 1500 1500" style="enable-background:new 0 0 1500 1500;" xml:space="preserve">
<style type="text/css">
	.st0{display:none;}
	.st1{display:none;fill:none;stroke:#000000;stroke-width:10;stroke-miterlimit:10;}
	.st2{clip-path:url(#SVGID_2_);}
	.st3{fill:#F2570A;}
	.st4{fill:#47A81A;}
	.st5{fill:#0D7BD6;}
	.st6{fill:#FFFFFF;}
	.st7{fill:#296482;}
	.st8{fill:#1F8750;}
	.st9{fill:#147391;}
	.st10{fill:none;stroke:#296482;stroke-width:3;stroke-miterlimit:10;}
	.st11{fill:none;stroke:#000000;stroke-miterlimit:10;}
	.st12{fill:#CCCCCC;}
	.st13{fill:#F2F2F2;}
	.st14{fill:#6C63FF;}
	.st15{fill:#12753E;}
	.st16{fill:none;stroke:#FFFFFF;stroke-miterlimit:10;}
	.st17{display:inline;fill:#6AA244;}
</style>
<g id="Layer_1" class="st0">
</g>
<g id="Layer_2">
	<g>
		<g>
			<path d="M938.9,667.2c3.3,0,6,0.4,8.3,1.2c2.3,0.8,4.1,1.6,5.4,2.4c1.3,0.8,2.1,1.4,2.3,1.6l-2.8,4.2c-0.4-0.4-1.2-0.9-2.3-1.7
				c-1.1-0.7-2.5-1.4-4.3-2s-3.8-0.9-6.2-0.9c-3.8,0-6.8,0.8-9,2.4c-2.2,1.6-3.3,3.8-3.3,6.7c0,1.9,0.6,3.6,1.7,5
				c1.2,1.4,2.7,2.7,4.7,3.9s4.3,2.3,6.8,3.5c2,0.9,4,1.9,6,3c2,1.1,3.8,2.4,5.5,3.9s3,3.2,4,5.2c1,2,1.5,4.2,1.5,6.8
				c0,2.3-0.5,4.5-1.4,6.4c-0.9,1.9-2.3,3.6-4,5c-1.7,1.4-3.8,2.5-6.2,3.2c-2.4,0.8-5,1.1-7.8,1.1c-3.4,0-6.4-0.4-9.2-1.3
				c-2.8-0.9-5-1.8-6.7-2.7c-1.7-0.9-2.6-1.5-2.8-1.7l3-4.4c0.4,0.3,1,0.7,1.9,1.3c0.9,0.6,2,1.2,3.4,1.8c1.4,0.6,2.9,1.1,4.7,1.6
				s3.7,0.6,5.8,0.6c4.6,0,8-1.1,10.4-3.2c2.4-2.1,3.5-4.8,3.5-8c0-2.5-0.8-4.7-2.3-6.5c-1.5-1.8-3.5-3.4-5.8-4.7
				c-2.4-1.4-4.8-2.7-7.4-3.9c-2.7-1.3-5.2-2.6-7.4-4.1s-4-3.1-5.3-5.1c-1.3-1.9-2-4.2-2-6.9c0-2.6,0.8-5,2.3-7
				c1.5-2,3.6-3.7,6.2-4.8C932.8,667.8,935.7,667.2,938.9,667.2z"/>
			<path d="M964.2,690.5h7.6v-15h5v15h10v4.6h-10v21.6c0,2.4,0.4,4.2,1.3,5.2s2,1.6,3.3,1.6c1.3,0,2.2-0.2,2.9-0.7
				c0.7-0.4,1-0.7,1.2-0.9l2.4,3.9c-0.2,0.1-0.6,0.4-1.2,0.8c-0.6,0.4-1.4,0.7-2.4,1c-1,0.3-2.2,0.5-3.6,0.5c-2.5,0-4.5-0.8-6.2-2.4
				c-1.7-1.6-2.6-4.1-2.6-7.6v-23h-7.6V690.5z"/>
			<path d="M1000.2,709.5c0,4.3,0.9,7.7,2.8,10.2c1.9,2.5,4.7,3.8,8.5,3.8c3.8,0,6.7-1.3,8.5-3.8s2.8-5.9,2.8-10.2v-19.1h5.1v20
				c0,3.4-0.6,6.4-1.9,9.1c-1.3,2.7-3.1,4.7-5.6,6.2c-2.4,1.5-5.4,2.3-8.9,2.3c-3.5,0-6.5-0.8-8.9-2.3c-2.4-1.5-4.3-3.6-5.6-6.2
				c-1.3-2.7-1.9-5.7-1.9-9.1v-20h5V709.5z"/>
			<path d="M1055.8,728c-3.3,0-6.3-0.8-8.9-2.3c-2.7-1.5-4.8-3.7-6.4-6.6c-1.6-2.9-2.4-6.3-2.4-10.4c0-4,0.8-7.5,2.4-10.4
				c1.6-2.9,3.7-5.1,6.4-6.6c2.7-1.5,5.6-2.3,8.9-2.3c2.8,0,5.3,0.5,7.5,1.6c2.2,1,3.9,2.2,5.2,3.6c1.3,1.3,2,2.5,2.1,3.5v-32.2h5.2
				V727h-5v-7.6c-0.2,0.9-1,2.1-2.2,3.5c-1.3,1.4-3,2.6-5.2,3.6C1061.1,727.5,1058.6,728,1055.8,728z M1056.4,723.6
				c2.6,0,4.9-0.6,7.1-1.8c2.1-1.2,3.8-2.9,5.1-5.2c1.3-2.2,1.9-4.8,1.9-7.9s-0.6-5.6-1.9-7.9c-1.3-2.2-3-3.9-5.1-5.2
				c-2.1-1.2-4.5-1.8-7.1-1.8c-2.3,0-4.5,0.6-6.5,1.8s-3.6,2.9-4.9,5.1c-1.2,2.2-1.9,4.9-1.9,8c0,3.1,0.6,5.7,1.9,8
				c1.2,2.2,2.9,3.9,4.9,5.1C1052,723,1054.1,723.6,1056.4,723.6z"/>
			<path d="M1098.3,722.1l13.4-31.6h5.2l-24.4,55h-5.2l8.3-18.5l-15-36.5h5.3L1098.3,722.1z"/>
			<path d="M939.2,754.7h5.5l21,58.7h-5.3l-5.5-15.2h-26l-5.5,15.2h-5.4L939.2,754.7z M930.5,793.5h23L942,761h-0.1L930.5,793.5z"/>
			<path d="M972.3,813.4v-61.2h5.2v32.2c0.1-1,0.8-2.1,2.1-3.5c1.2-1.3,2.9-2.5,5.1-3.6c2.2-1,4.7-1.6,7.5-1.6c3.3,0,6.3,0.8,9,2.3
				c2.7,1.5,4.8,3.8,6.3,6.6s2.4,6.3,2.4,10.4c0,4-0.8,7.5-2.4,10.4s-3.7,5.1-6.3,6.6c-2.7,1.5-5.6,2.3-9,2.3
				c-2.8,0-5.3-0.5-7.4-1.6s-3.9-2.3-5.2-3.6c-1.3-1.4-2-2.5-2.2-3.5v7.6H972.3z M1004.7,795.1c0-3.1-0.6-5.7-1.8-8
				c-1.2-2.2-2.8-3.9-4.8-5.1s-4.2-1.8-6.5-1.8c-2.5,0-4.9,0.6-7,1.8c-2.1,1.2-3.8,3-5.1,5.2c-1.3,2.2-1.9,4.8-1.9,7.9
				s0.6,5.6,1.9,7.9c1.3,2.2,3,3.9,5.1,5.2c2.1,1.2,4.5,1.8,7,1.8c2.3,0,4.5-0.6,6.5-1.8c2-1.2,3.6-2.9,4.8-5.1
				C1004.1,800.9,1004.7,798.2,1004.7,795.1z"/>
			<path d="M1023,813.4h-5v-36.5h5v6.6h-0.2c0.1-0.8,0.7-1.8,1.6-3s2.3-2.3,3.9-3.2c1.7-1,3.6-1.4,5.9-1.4c1.7,0,3.2,0.2,4.4,0.6
				c1.2,0.4,2.1,0.9,2.6,1.3l-2.2,4.3c-0.4-0.4-1.1-0.8-2.2-1.2c-1.1-0.4-2.3-0.6-3.8-0.6c-2,0-3.8,0.7-5.3,2
				c-1.5,1.4-2.7,3-3.5,4.9s-1.2,3.6-1.2,5.2V813.4z"/>
			<path d="M1062.1,814.4c-3.6,0-6.9-0.9-9.7-2.6c-2.8-1.7-5.1-4-6.7-6.9c-1.6-2.9-2.4-6.1-2.4-9.7c0-3.6,0.8-6.9,2.4-9.8
				s3.8-5.3,6.7-7c2.8-1.7,6.1-2.6,9.7-2.6s6.9,0.9,9.7,2.6c2.8,1.7,5,4.1,6.6,7c1.6,2.9,2.4,6.2,2.4,9.8c0,3.6-0.8,6.8-2.4,9.7
				c-1.6,2.9-3.8,5.2-6.6,6.9C1069,813.6,1065.8,814.4,1062.1,814.4z M1062.1,809.8c2.8,0,5.2-0.6,7.2-1.9c2.1-1.3,3.7-3,4.8-5.2
				s1.7-4.7,1.7-7.5c0-2.8-0.6-5.3-1.7-7.5s-2.7-4-4.8-5.3c-2.1-1.3-4.5-2-7.2-2c-2.8,0-5.2,0.7-7.3,2c-2.1,1.3-3.7,3.1-4.8,5.3
				c-1.2,2.2-1.7,4.7-1.7,7.5c0,2.8,0.6,5.2,1.7,7.5c1.2,2.2,2.8,4,4.8,5.2C1056.9,809.2,1059.3,809.8,1062.1,809.8z"/>
			<path d="M1119.8,813.4v-7.6c-0.2,0.8-0.9,1.9-2.1,3.3s-2.8,2.6-4.8,3.8c-2.1,1.1-4.5,1.7-7.3,1.7c-3.3,0-6.3-0.8-9.1-2.3
				c-2.8-1.5-5-3.7-6.7-6.6s-2.5-6.3-2.5-10.4c0-4,0.8-7.5,2.5-10.4s3.9-5.1,6.7-6.6c2.8-1.5,5.8-2.3,9.1-2.3c2.8,0,5.2,0.5,7.3,1.6
				c2,1.1,3.7,2.3,4.9,3.6c1.2,1.4,1.9,2.5,2,3.4v-7.6h5v36.5H1119.8z M1092.3,795.1c0,3.1,0.7,5.7,2,8c1.3,2.2,3.1,3.9,5.2,5.1
				c2.1,1.2,4.3,1.8,6.7,1.8c2.6,0,4.9-0.6,6.9-1.8c2-1.2,3.6-2.9,4.8-5.2c1.2-2.2,1.8-4.8,1.8-7.9s-0.6-5.6-1.8-7.9
				c-1.2-2.2-2.8-3.9-4.8-5.2c-2-1.2-4.3-1.8-6.9-1.8c-2.3,0-4.6,0.6-6.7,1.8s-3.8,2.9-5.2,5.1
				C1093,789.4,1092.3,792.1,1092.3,795.1z"/>
			<path d="M1152.2,814.4c-3.3,0-6.3-0.8-8.9-2.3c-2.7-1.5-4.8-3.7-6.4-6.6s-2.4-6.3-2.4-10.4c0-4,0.8-7.5,2.4-10.4s3.7-5.1,6.4-6.6
				c2.7-1.5,5.6-2.3,8.9-2.3c2.8,0,5.3,0.5,7.5,1.6c2.2,1,3.9,2.2,5.2,3.6c1.3,1.3,2,2.5,2.1,3.5v-32.2h5.2v61.2h-5v-7.6
				c-0.2,0.9-1,2.1-2.2,3.5c-1.3,1.4-3,2.6-5.2,3.6C1157.5,813.9,1155,814.4,1152.2,814.4z M1152.8,810c2.6,0,4.9-0.6,7.1-1.8
				c2.1-1.2,3.8-2.9,5.1-5.2c1.3-2.2,1.9-4.8,1.9-7.9s-0.6-5.6-1.9-7.9c-1.3-2.2-3-3.9-5.1-5.2c-2.1-1.2-4.5-1.8-7.1-1.8
				c-2.3,0-4.5,0.6-6.5,1.8s-3.6,2.9-4.9,5.1c-1.2,2.2-1.9,4.9-1.9,8c0,3.1,0.6,5.7,1.9,8c1.2,2.2,2.9,3.9,4.9,5.1
				C1148.4,809.4,1150.5,810,1152.8,810z"/>
		</g>
		<g>
			<path class="st15" d="M496.8,633.3h-13.7v-9.2h37.8v9.2h-13.7v45.6h-10.4V633.3z"/>
			<path class="st15" d="M535.1,678.9h-10.5v-34.1h10.5v5.5h-0.2c0.2-0.7,0.7-1.5,1.6-2.5c0.9-1,2.1-1.9,3.6-2.8
				c1.5-0.8,3.4-1.2,5.6-1.2c1.6,0,3,0.2,4.3,0.7c1.3,0.5,2.2,0.9,2.8,1.3l-4.1,8.6c-0.4-0.4-1-0.9-2-1.4c-1-0.5-2.2-0.7-3.7-0.7
				c-1.7,0-3.2,0.5-4.4,1.4c-1.2,1-2,2.1-2.6,3.5c-0.6,1.4-0.9,2.6-0.9,3.8V678.9z"/>
			<path class="st15" d="M566.6,661.2c0,3,0.6,5.5,1.8,7.3c1.2,1.8,3.2,2.7,5.9,2.7c2.7,0,4.7-0.9,5.9-2.7c1.2-1.8,1.8-4.2,1.8-7.3
				v-16.3h10.4v17.5c0,3.5-0.7,6.6-2.1,9.2c-1.4,2.6-3.5,4.7-6.2,6.1c-2.7,1.5-6,2.2-9.9,2.2c-3.8,0-7.1-0.7-9.8-2.2
				c-2.7-1.5-4.7-3.5-6.2-6.1c-1.4-2.6-2.1-5.7-2.1-9.2v-17.5h10.4V661.2z"/>
			<path class="st15" d="M615,643.9c2,0,3.9,0.2,5.7,0.6c1.7,0.4,3.2,0.8,4.4,1.3c1.2,0.5,2,0.9,2.4,1.2l-3.6,6.3
				c-0.6-0.4-1.5-1-3-1.6c-1.4-0.6-3-0.9-4.8-0.9c-1.6,0-2.9,0.3-4,0.8c-1.1,0.5-1.6,1.3-1.6,2.4c0,1.1,0.6,1.9,1.7,2.6
				c1.2,0.6,2.8,1.2,4.9,1.7c1.7,0.4,3.5,0.9,5.1,1.6c1.7,0.7,3.1,1.8,4.2,3.2c1.1,1.4,1.7,3.2,1.7,5.5c0,2.2-0.5,4.1-1.4,5.6
				s-2.2,2.6-3.8,3.5c-1.6,0.9-3.3,1.5-5.2,1.8c-1.9,0.4-3.7,0.5-5.6,0.5c-2.4,0-4.5-0.2-6.3-0.7c-1.8-0.5-3.3-1-4.5-1.6
				c-1.2-0.6-2-1.1-2.5-1.5l3.6-7.1c0.7,0.6,1.9,1.3,3.5,2.1c1.6,0.8,3.4,1.1,5.3,1.1c2,0,3.6-0.3,4.7-1c1.1-0.7,1.7-1.6,1.7-2.8
				c0-0.9-0.3-1.6-0.8-2.1c-0.6-0.5-1.3-1-2.3-1.3c-1-0.4-2.1-0.7-3.4-1c-1.2-0.2-2.4-0.6-3.7-1.1c-1.2-0.5-2.4-1.1-3.5-1.9
				c-1.1-0.8-1.9-1.8-2.6-3c-0.7-1.2-1-2.6-1-4.3c0-2.2,0.7-4,2.1-5.4c1.4-1.5,3.2-2.6,5.4-3.3C610.2,644.2,612.5,643.9,615,643.9z"
				/>
			<path class="st15" d="M632,644.9h6.1v-14h10.5v14h8v8.8h-8v12.3c0,1.6,0.3,2.9,0.8,3.8c0.5,0.9,1.4,1.3,2.5,1.3
				c0.9,0,1.6-0.2,2.1-0.5s0.9-0.6,1-0.7l3.7,7.5c-0.2,0.2-0.7,0.5-1.6,0.9c-0.9,0.4-2,0.8-3.4,1.1c-1.4,0.3-3,0.5-4.7,0.5
				c-3.1,0-5.7-0.9-7.8-2.7c-2-1.8-3.1-4.6-3.1-8.4v-15.1H632V644.9z"/>
			<path class="st15" d="M486.2,705.8h34v9.2h-23.7v13.7h23.4v8.9h-23.4v13.9h23.7v9.2h-34V705.8z"/>
			<path class="st15" d="M544.9,761.6c-3.2,0-6.1-0.8-8.5-2.3c-2.4-1.6-4.4-3.7-5.7-6.4c-1.4-2.7-2.1-5.8-2.1-9.2
				c0-3.4,0.7-6.5,2.1-9.2c1.4-2.7,3.3-4.9,5.7-6.5c2.4-1.6,5.3-2.4,8.5-2.4c2.3,0,4.3,0.4,6.1,1.1c1.8,0.7,3.2,1.6,4.3,2.7
				c1.1,1,1.7,1.9,1.9,2.7v-28.5h10.6v57.1h-10.5v-5.9c-0.4,1-1.3,2-2.4,3.1c-1.2,1.1-2.6,2-4.4,2.7
				C548.9,761.2,547,761.6,544.9,761.6z M547.9,753.2c1.8,0,3.4-0.4,4.8-1.2c1.4-0.8,2.5-2,3.3-3.4c0.8-1.5,1.2-3.1,1.2-5
				s-0.4-3.5-1.2-5c-0.8-1.5-1.9-2.6-3.3-3.4c-1.4-0.8-3-1.2-4.8-1.2c-1.6,0-3.1,0.4-4.5,1.2c-1.4,0.8-2.4,2-3.3,3.4
				c-0.8,1.5-1.2,3.1-1.2,5s0.4,3.6,1.2,5c0.8,1.5,1.9,2.6,3.3,3.4C544.8,752.8,546.3,753.2,547.9,753.2z"/>
			<path class="st15" d="M585.3,742.8c0,3,0.6,5.5,1.8,7.3c1.2,1.8,3.2,2.7,5.9,2.7c2.7,0,4.7-0.9,5.9-2.7c1.2-1.8,1.8-4.2,1.8-7.3
				v-16.3h10.4V744c0,3.5-0.7,6.6-2.1,9.2c-1.4,2.6-3.5,4.7-6.2,6.1c-2.7,1.5-6,2.2-9.9,2.2c-3.8,0-7.1-0.7-9.8-2.2
				c-2.7-1.5-4.7-3.5-6.2-6.1c-1.4-2.6-2.1-5.7-2.1-9.2v-17.5h10.4V742.8z"/>
			<path class="st15" d="M637.2,753.2c1.8,0,3.3-0.3,4.4-0.9c1.1-0.6,1.9-1.1,2.2-1.4l4.9,7.3c-0.4,0.3-1.1,0.7-2.2,1.3
				c-1.1,0.6-2.4,1-4,1.5s-3.5,0.6-5.5,0.6c-3.6,0-6.8-0.7-9.7-2.2c-2.8-1.5-5.1-3.5-6.7-6.2c-1.6-2.7-2.5-5.9-2.5-9.6
				c0-3.8,0.8-7,2.5-9.7c1.6-2.7,3.9-4.7,6.7-6.2c2.8-1.4,6.1-2.2,9.7-2.2c2,0,3.9,0.2,5.5,0.7c1.6,0.4,2.9,0.9,4,1.5
				c1.1,0.6,1.8,1,2.2,1.4l-5,7.3c-0.2-0.2-0.6-0.5-1.1-0.9c-0.6-0.4-1.3-0.7-2.2-1.1c-0.9-0.3-2-0.5-3.2-0.5c-1.5,0-3,0.4-4.3,1.2
				c-1.4,0.8-2.5,1.9-3.3,3.4c-0.9,1.4-1.3,3.1-1.3,5.1c0,1.9,0.4,3.6,1.3,5.1c0.9,1.5,2,2.6,3.3,3.4
				C634.3,752.8,635.7,753.2,637.2,753.2z"/>
			<path class="st15" d="M681.4,760.6v-5.9c-0.2,0.6-0.9,1.5-1.9,2.6c-1,1.1-2.4,2.1-4.1,3c-1.7,0.9-3.8,1.3-6.1,1.3
				c-3.3,0-6.2-0.8-8.7-2.3c-2.5-1.6-4.5-3.7-5.9-6.4c-1.4-2.7-2.1-5.8-2.1-9.2c0-3.4,0.7-6.5,2.1-9.2c1.4-2.7,3.4-4.9,5.9-6.5
				c2.5-1.6,5.4-2.4,8.7-2.4c2.3,0,4.2,0.4,5.9,1.1s3,1.6,4.1,2.7c1,1,1.7,1.9,2,2.7v-5.5h10.5v34.1H681.4z M662.9,743.6
				c0,1.9,0.4,3.6,1.3,5c0.9,1.5,2,2.6,3.4,3.4c1.4,0.8,2.9,1.2,4.6,1.2c1.7,0,3.3-0.4,4.6-1.2c1.4-0.8,2.4-2,3.2-3.4
				c0.8-1.5,1.2-3.1,1.2-5s-0.4-3.5-1.2-5c-0.8-1.5-1.9-2.6-3.2-3.4c-1.4-0.8-2.9-1.2-4.6-1.2c-1.7,0-3.2,0.4-4.6,1.2
				c-1.4,0.8-2.5,2-3.4,3.4C663.4,740,662.9,741.7,662.9,743.6z"/>
			<path class="st15" d="M697.5,726.5h6.1v-14h10.5v14h8v8.8h-8v12.3c0,1.6,0.3,2.9,0.8,3.8c0.5,0.9,1.4,1.3,2.5,1.3
				c0.9,0,1.6-0.2,2.1-0.5s0.9-0.6,1-0.7l3.7,7.5c-0.2,0.2-0.7,0.5-1.6,0.9c-0.9,0.4-2,0.8-3.4,1.1c-1.4,0.3-3,0.5-4.7,0.5
				c-3.1,0-5.7-0.9-7.8-2.7c-2-1.8-3.1-4.6-3.1-8.4v-15.1h-6.1V726.5z"/>
			<path class="st15" d="M735.5,717.7c-1.7,0-3.2-0.6-4.4-1.8c-1.2-1.2-1.8-2.7-1.8-4.4c0-1.7,0.6-3.2,1.8-4.4
				c1.2-1.2,2.7-1.9,4.4-1.9c1.1,0,2.2,0.3,3.1,0.9c0.9,0.6,1.7,1.3,2.3,2.3c0.6,0.9,0.9,2,0.9,3.2c0,1.7-0.6,3.1-1.8,4.4
				C738.7,717.1,737.3,717.7,735.5,717.7z M730.1,760.6v-34.1h10.5v34.1H730.1z"/>
			<path class="st15" d="M767,761.6c-3.6,0-6.9-0.8-9.7-2.3c-2.8-1.5-5.1-3.7-6.7-6.4c-1.6-2.7-2.4-5.8-2.4-9.2s0.8-6.5,2.4-9.3
				c1.6-2.7,3.8-4.9,6.7-6.5c2.8-1.6,6.1-2.4,9.7-2.4c3.7,0,6.9,0.8,9.7,2.4c2.8,1.6,5,3.7,6.6,6.5c1.6,2.7,2.4,5.8,2.4,9.3
				s-0.8,6.5-2.4,9.2c-1.6,2.7-3.8,4.8-6.6,6.4C773.9,760.8,770.6,761.6,767,761.6z M767,752.8c1.7,0,3.3-0.4,4.5-1.2s2.3-1.9,3-3.3
				c0.7-1.4,1.1-3,1.1-4.8c0-1.8-0.4-3.4-1.1-4.8c-0.7-1.4-1.7-2.5-3-3.3s-2.8-1.2-4.5-1.2s-3.3,0.4-4.5,1.2s-2.3,1.9-3,3.3
				c-0.7,1.4-1.1,3-1.1,4.8c0,1.8,0.4,3.4,1.1,4.8c0.7,1.4,1.7,2.5,3,3.3S765.2,752.8,767,752.8z"/>
			<path class="st15" d="M814.4,725.5c2.3,0,4.6,0.5,6.8,1.4s4,2.5,5.5,4.5c1.4,2.1,2.1,4.8,2.1,8.1v20.9h-10.6v-19.1
				c0-2.8-0.7-4.9-2-6.2c-1.3-1.4-3-2-5.2-2c-1.4,0-2.7,0.4-4,1.1c-1.3,0.8-2.3,1.8-3.1,3.2c-0.8,1.3-1.2,2.9-1.2,4.6v18.5h-10.5
				v-34.1h10.5v5.4c0.3-0.9,1-1.9,2.1-2.9c1.1-1,2.4-1.8,4.1-2.5C810.7,725.9,812.4,725.5,814.4,725.5z"/>
			<path class="st15" d="M503.5,787.5h10.4l21.1,54.8h-11l-4.3-11.8h-21.9l-4.4,11.8h-11.1L503.5,787.5z M501.2,821.3h15.1
				l-7.5-21.2h-0.1L501.2,821.3z"/>
			<path class="st15" d="M566.7,842.3v-5.9c-0.2,0.6-0.9,1.5-1.9,2.6c-1,1.1-2.4,2.1-4.1,3c-1.7,0.9-3.8,1.3-6.1,1.3
				c-3.3,0-6.2-0.8-8.7-2.3c-2.5-1.6-4.5-3.7-5.9-6.4c-1.4-2.7-2.1-5.8-2.1-9.2c0-3.4,0.7-6.5,2.1-9.2c1.4-2.7,3.4-4.9,5.9-6.5
				c2.5-1.6,5.4-2.4,8.7-2.4c2.3,0,4.2,0.4,5.9,1.1s3,1.6,4.1,2.7c1,1,1.7,1.9,2,2.7v-5.5H577v34.1H566.7z M557.1,860.5
				c-2.5,0-4.9-0.2-7.2-0.7c-2.3-0.5-4.3-1.2-6.2-2.2c-1.9-1-3.4-2.3-4.6-3.9l6.4-6.5c0.6,0.7,1.3,1.5,2.3,2.3
				c0.9,0.8,2.1,1.4,3.5,1.9s3.2,0.8,5.4,0.8c2,0,3.8-0.4,5.3-1.2c1.5-0.8,2.6-1.9,3.4-3.3c0.8-1.4,1.2-3.1,1.2-5v-1H577v1.6
				c0,3.8-0.9,6.9-2.7,9.5c-1.8,2.6-4.1,4.5-7.1,5.8C564.2,859.8,560.9,860.5,557.1,860.5z M548.2,825.3c0,1.9,0.4,3.6,1.3,5
				c0.9,1.5,2,2.6,3.4,3.4c1.4,0.8,2.9,1.2,4.6,1.2c1.7,0,3.3-0.4,4.6-1.2c1.4-0.8,2.4-2,3.2-3.4c0.8-1.5,1.2-3.1,1.2-5
				s-0.4-3.5-1.2-5c-0.8-1.5-1.9-2.6-3.2-3.4c-1.4-0.8-2.9-1.2-4.6-1.2c-1.7,0-3.2,0.4-4.6,1.2c-1.4,0.8-2.5,2-3.4,3.4
				C548.6,821.7,548.2,823.4,548.2,825.3z"/>
			<path class="st15" d="M593.7,827.6c0.1,1.5,0.5,2.9,1.2,4.1c0.7,1.2,1.8,2.2,3.3,2.9c1.4,0.7,3.1,1,5.2,1c1.8,0,3.3-0.2,4.7-0.7
				c1.4-0.4,2.5-1,3.5-1.6c1-0.6,1.7-1.3,2.1-1.9l4.4,6.4c-0.8,1-1.8,1.9-3.1,2.7c-1.3,0.8-2.9,1.5-4.9,1.9c-2,0.5-4.4,0.7-7.4,0.7
				c-3.7,0-7-0.7-9.8-2.2s-5-3.6-6.6-6.3c-1.6-2.8-2.4-6.1-2.4-9.9c0-3.3,0.7-6.3,2.1-9c1.4-2.7,3.5-4.8,6.2-6.3
				c2.7-1.5,5.9-2.3,9.7-2.3c3.6,0,6.7,0.7,9.3,2.1c2.6,1.4,4.6,3.4,6.1,6c1.4,2.6,2.2,5.8,2.2,9.6c0,0.2,0,0.7,0,1.4
				c0,0.7,0,1.1-0.1,1.3H593.7z M609.5,821.1c0-0.9-0.3-1.8-0.8-2.9c-0.5-1-1.3-1.9-2.4-2.6c-1.1-0.7-2.5-1.1-4.3-1.1
				c-1.8,0-3.3,0.4-4.4,1.1c-1.1,0.7-2,1.6-2.6,2.6c-0.6,1-0.9,2-1,2.9H609.5z"/>
			<path class="st15" d="M648.2,807.2c2.3,0,4.6,0.5,6.8,1.4c2.2,1,4,2.5,5.5,4.5c1.4,2.1,2.1,4.8,2.1,8.1v20.9H652v-19.1
				c0-2.8-0.7-4.9-2-6.2c-1.3-1.4-3-2-5.2-2c-1.4,0-2.7,0.4-4,1.1c-1.3,0.8-2.3,1.8-3.1,3.2s-1.2,2.9-1.2,4.6v18.5h-10.5v-34.1h10.5
				v5.4c0.3-0.9,1-1.9,2.1-2.9c1.1-1,2.4-1.8,4.1-2.5C644.5,807.6,646.3,807.2,648.2,807.2z"/>
			<path class="st15" d="M688.3,834.9c1.8,0,3.3-0.3,4.4-0.9c1.1-0.6,1.9-1.1,2.2-1.4l4.9,7.3c-0.4,0.3-1.1,0.7-2.2,1.3
				c-1.1,0.6-2.4,1-4,1.5s-3.5,0.6-5.5,0.6c-3.6,0-6.8-0.7-9.7-2.2c-2.8-1.5-5.1-3.5-6.7-6.2c-1.6-2.7-2.5-5.9-2.5-9.6
				c0-3.8,0.8-7,2.5-9.7c1.6-2.7,3.9-4.7,6.7-6.2c2.8-1.4,6.1-2.2,9.7-2.2c2,0,3.9,0.2,5.5,0.7c1.6,0.4,2.9,0.9,4,1.5
				c1.1,0.6,1.8,1,2.2,1.4l-5,7.3c-0.2-0.2-0.6-0.5-1.1-0.9c-0.6-0.4-1.3-0.7-2.2-1.1c-0.9-0.3-2-0.5-3.2-0.5c-1.5,0-3,0.4-4.3,1.2
				c-1.4,0.8-2.5,1.9-3.3,3.4c-0.9,1.4-1.3,3.1-1.3,5.1c0,1.9,0.4,3.6,1.3,5.1c0.9,1.5,2,2.6,3.3,3.4
				C685.3,834.5,686.8,834.9,688.3,834.9z"/>
			<path class="st15" d="M721.7,833l10.1-24.8h10.4l-23.3,51.3h-10.6l7.8-17.3l-14.1-34.1h10.5L721.7,833z"/>
		</g>
		<g>
			<path class="st15" d="M330.1,797.3c-1.2,0-2.1-1-2.1-2.1l0.4-142.2c0-16.1,13.1-29.1,29.2-29c16.1,0,29.1,13.1,29,29.2l0,0
				l-0.4,142.2c0,1.2-1,2.1-2.1,2.1c-1.2,0-2.1-1-2.1-2.1l0.4-142.2c0-13.7-11.1-24.9-24.8-24.9c-13.7,0-24.9,11.1-24.9,24.8l0,0
				l-0.4,142.2C332.2,796.4,331.2,797.3,330.1,797.3z"/>
			<path class="st15" d="M372.2,794.1l0.4-148.8c0-0.2,0.2-0.4,0.4-0.4c0.2,0,0.4,0.2,0.4,0.4L373,794.1c0,0.2-0.2,0.4-0.4,0.4
				C372.3,794.5,372.2,794.3,372.2,794.1z"/>
			<path class="st15" d="M361.9,794l0.4-148.8c0-0.2,0.2-0.4,0.4-0.4c0.2,0,0.4,0.2,0.4,0.4L362.8,794c0,0.2-0.2,0.4-0.4,0.4
				C362.1,794.5,361.9,794.3,361.9,794z"/>
			<path class="st15" d="M351.7,794l0.4-148.8c0-0.2,0.2-0.4,0.4-0.4c0.2,0,0.4,0.2,0.4,0.4L352.6,794c0,0.2-0.2,0.4-0.4,0.4
				C351.9,794.4,351.7,794.2,351.7,794z"/>
			<path class="st15" d="M341.5,794l0.4-148.8c0-0.2,0.2-0.4,0.4-0.4c0.2,0,0.4,0.2,0.4,0.4L342.4,794c0,0.2-0.2,0.4-0.4,0.4
				C341.7,794.4,341.5,794.2,341.5,794z"/>
			<path class="st15" d="M451.4,667.4c1.2,0,2.1,1,2.1,2.1l-0.4,142.2c0,16.1-13.1,29.1-29.2,29c-16.1,0-29.1-13.1-29-29.2l0,0
				l0.4-142.2c0-1.2,1-2.1,2.1-2.1s2.1,1,2.1,2.1l-0.4,142.2c0,13.7,11.1,24.9,24.8,24.9c13.7,0,24.9-11.1,24.9-24.8l0,0l0.4-142.2
				C449.3,668.3,450.3,667.4,451.4,667.4z"/>
			<path class="st15" d="M409.3,670.6l-0.4,148.8c0,0.2-0.2,0.4-0.4,0.4c-0.2,0-0.4-0.2-0.4-0.4l0.4-148.8c0-0.2,0.2-0.4,0.4-0.4
				C409.1,670.2,409.3,670.4,409.3,670.6z"/>
			<path class="st15" d="M419.5,670.7l-0.4,148.8c0,0.2-0.2,0.4-0.4,0.4c-0.2,0-0.4-0.2-0.4-0.4l0.4-148.8c0-0.2,0.2-0.4,0.4-0.4
				C419.3,670.2,419.5,670.4,419.5,670.7z"/>
			<path class="st15" d="M429.7,670.7l-0.4,148.8c0,0.2-0.2,0.4-0.4,0.4c-0.2,0-0.4-0.2-0.4-0.4l0.4-148.8c0-0.2,0.2-0.4,0.4-0.4
				C429.5,670.3,429.7,670.5,429.7,670.7z"/>
			<path class="st15" d="M439.9,670.7l-0.4,148.8c0,0.2-0.2,0.4-0.4,0.4c-0.2,0-0.4-0.2-0.4-0.4l0.4-148.8c0-0.2,0.2-0.4,0.4-0.4
				C439.8,670.3,439.9,670.5,439.9,670.7z"/>
		</g>
		<g>
			<rect x="866.9" y="624" width="2" height="252.1"/>
			<path d="M869.4,876.5h-3V623.5h3V876.5z M867.4,875.5h1V624.5h-1V875.5z"/>
		</g>
	</g>
</g>
<g id="Layer_3" class="st0">
</g>
</svg>
