<?xml version="1.0" encoding="utf-8"?>
<!-- Generator: Adobe Illustrator 24.2.0, SVG Export Plug-In . SVG Version: 6.00 Build 0)  -->
<svg version="1.1" xmlns="http://www.w3.org/2000/svg" xmlns:xlink="http://www.w3.org/1999/xlink" x="0px" y="0px"
	 viewBox="0 0 1500 1500" style="enable-background:new 0 0 1500 1500;" xml:space="preserve">
<style type="text/css">
	.st0{display:none;}
	.st1{display:none;fill:none;stroke:#000000;stroke-width:10;stroke-miterlimit:10;}
	.st2{clip-path:url(#SVGID_2_);}
	.st3{fill:#F2570A;}
	.st4{fill:#47A81A;}
	.st5{fill:#0D7BD6;}
	.st6{fill:#FFFFFF;}
	.st7{fill:#296482;}
	.st8{fill:#1F8750;}
	.st9{fill:#147391;}
	.st10{fill:none;stroke:#296482;stroke-width:3;stroke-miterlimit:10;}
	.st11{fill:none;stroke:#000000;stroke-miterlimit:10;}
	.st12{fill:#CCCCCC;}
	.st13{fill:#F2F2F2;}
	.st14{fill:#6C63FF;}
	.st15{fill:#12753E;}
	.st16{fill:none;stroke:#FFFFFF;stroke-miterlimit:10;}
	.st17{display:inline;fill:#6AA244;}
</style>
<g id="Layer_1" class="st0">
</g>
<g id="Layer_2">
	<rect class="st15" width="1500" height="1500"/>
	<g>
		<g>
			<path class="st6" d="M937,674.2c3.3,0,6,0.4,8.3,1.2c2.3,0.8,4.1,1.6,5.4,2.4c1.3,0.8,2.1,1.4,2.3,1.6l-2.8,4.2
				c-0.4-0.4-1.2-0.9-2.3-1.7c-1.1-0.7-2.5-1.4-4.3-2s-3.8-0.9-6.2-0.9c-3.8,0-6.8,0.8-9,2.4c-2.2,1.6-3.3,3.8-3.3,6.7
				c0,1.9,0.6,3.6,1.7,5c1.2,1.4,2.7,2.7,4.7,3.9s4.3,2.3,6.8,3.5c2,0.9,4,1.9,6,3c2,1.1,3.8,2.4,5.5,3.9s3,3.2,4,5.2
				c1,2,1.5,4.2,1.5,6.8c0,2.3-0.5,4.5-1.4,6.4c-0.9,1.9-2.3,3.6-4,5c-1.7,1.4-3.8,2.5-6.2,3.2c-2.4,0.8-5,1.1-7.8,1.1
				c-3.4,0-6.4-0.4-9.2-1.3c-2.8-0.9-5-1.8-6.7-2.7c-1.7-0.9-2.6-1.5-2.8-1.7l3-4.4c0.4,0.3,1,0.7,1.9,1.3c0.9,0.6,2,1.2,3.4,1.8
				c1.4,0.6,2.9,1.1,4.7,1.6s3.7,0.6,5.8,0.6c4.6,0,8-1.1,10.4-3.2c2.4-2.1,3.5-4.8,3.5-8c0-2.5-0.8-4.7-2.3-6.5
				c-1.5-1.8-3.5-3.4-5.8-4.7c-2.4-1.4-4.8-2.7-7.4-3.9c-2.7-1.3-5.2-2.6-7.4-4.1s-4-3.1-5.3-5.1c-1.3-1.9-2-4.2-2-6.9
				c0-2.6,0.8-5,2.3-7c1.5-2,3.6-3.7,6.2-4.8C930.8,674.8,933.7,674.2,937,674.2z"/>
			<path class="st6" d="M962.3,697.4h7.6v-15h5v15h10v4.6h-10v21.6c0,2.4,0.4,4.2,1.3,5.2s2,1.6,3.3,1.6c1.3,0,2.2-0.2,2.9-0.7
				c0.7-0.4,1-0.7,1.2-0.9l2.4,3.9c-0.2,0.1-0.6,0.4-1.2,0.8c-0.6,0.4-1.4,0.7-2.4,1c-1,0.3-2.2,0.5-3.6,0.5c-2.5,0-4.5-0.8-6.2-2.4
				c-1.7-1.6-2.6-4.1-2.6-7.6v-23h-7.6V697.4z"/>
			<path class="st6" d="M998.3,716.5c0,4.3,0.9,7.7,2.8,10.2c1.9,2.5,4.7,3.8,8.5,3.8c3.8,0,6.7-1.3,8.5-3.8s2.8-5.9,2.8-10.2v-19.1
				h5.1v20c0,3.4-0.6,6.4-1.9,9.1c-1.3,2.7-3.1,4.7-5.6,6.2c-2.4,1.5-5.4,2.3-8.9,2.3c-3.5,0-6.5-0.8-8.9-2.3
				c-2.4-1.5-4.3-3.6-5.6-6.2c-1.3-2.7-1.9-5.7-1.9-9.1v-20h5V716.5z"/>
			<path class="st6" d="M1053.9,735c-3.3,0-6.3-0.8-8.9-2.3c-2.7-1.5-4.8-3.7-6.4-6.6c-1.6-2.9-2.4-6.3-2.4-10.4
				c0-4,0.8-7.5,2.4-10.4c1.6-2.9,3.7-5.1,6.4-6.6c2.7-1.5,5.6-2.3,8.9-2.3c2.8,0,5.3,0.5,7.5,1.6c2.2,1,3.9,2.2,5.2,3.6
				c1.3,1.3,2,2.5,2.1,3.5v-32.2h5.2v61.2h-5v-7.6c-0.2,0.9-1,2.1-2.2,3.5c-1.3,1.4-3,2.6-5.2,3.6
				C1059.1,734.4,1056.7,735,1053.9,735z M1054.5,730.5c2.6,0,4.9-0.6,7.1-1.8c2.1-1.2,3.8-2.9,5.1-5.2c1.3-2.2,1.9-4.8,1.9-7.9
				s-0.6-5.6-1.9-7.9c-1.3-2.2-3-3.9-5.1-5.2c-2.1-1.2-4.5-1.8-7.1-1.8c-2.3,0-4.5,0.6-6.5,1.8s-3.6,2.9-4.9,5.1
				c-1.2,2.2-1.9,4.9-1.9,8c0,3.1,0.6,5.7,1.9,8c1.2,2.2,2.9,3.9,4.9,5.1C1050,729.9,1052.2,730.5,1054.5,730.5z"/>
			<path class="st6" d="M1096.4,729l13.4-31.6h5.2l-24.4,55h-5.2l8.3-18.5l-15-36.5h5.3L1096.4,729z"/>
			<path class="st6" d="M937.3,761.6h5.5l21,58.7h-5.3l-5.5-15.2h-26l-5.5,15.2h-5.4L937.3,761.6z M928.6,800.4h23l-11.5-32.5H940
				L928.6,800.4z"/>
			<path class="st6" d="M970.4,820.3v-61.2h5.2v32.2c0.1-1,0.8-2.1,2.1-3.5c1.2-1.3,2.9-2.5,5.1-3.6c2.2-1,4.7-1.6,7.5-1.6
				c3.3,0,6.3,0.8,9,2.3c2.7,1.5,4.8,3.8,6.3,6.6s2.4,6.3,2.4,10.4c0,4-0.8,7.5-2.4,10.4s-3.7,5.1-6.3,6.6c-2.7,1.5-5.6,2.3-9,2.3
				c-2.8,0-5.3-0.5-7.4-1.6s-3.9-2.3-5.2-3.6c-1.3-1.4-2-2.5-2.2-3.5v7.6H970.4z M1002.8,802.1c0-3.1-0.6-5.7-1.8-8
				c-1.2-2.2-2.8-3.9-4.8-5.1s-4.2-1.8-6.5-1.8c-2.5,0-4.9,0.6-7,1.8c-2.1,1.2-3.8,3-5.1,5.2c-1.3,2.2-1.9,4.8-1.9,7.9
				s0.6,5.6,1.9,7.9c1.3,2.2,3,3.9,5.1,5.2c2.1,1.2,4.5,1.8,7,1.8c2.3,0,4.5-0.6,6.5-1.8c2-1.2,3.6-2.9,4.8-5.1
				C1002.1,807.8,1002.8,805.2,1002.8,802.1z"/>
			<path class="st6" d="M1021,820.3h-5v-36.5h5v6.6h-0.2c0.1-0.8,0.7-1.8,1.6-3s2.3-2.3,3.9-3.2c1.7-1,3.6-1.4,5.9-1.4
				c1.7,0,3.2,0.2,4.4,0.6c1.2,0.4,2.1,0.9,2.6,1.3l-2.2,4.3c-0.4-0.4-1.1-0.8-2.2-1.2c-1.1-0.4-2.3-0.6-3.8-0.6c-2,0-3.8,0.7-5.3,2
				c-1.5,1.4-2.7,3-3.5,4.9s-1.2,3.6-1.2,5.2V820.3z"/>
			<path class="st6" d="M1060.2,821.4c-3.6,0-6.9-0.9-9.7-2.6c-2.8-1.7-5.1-4-6.7-6.9c-1.6-2.9-2.4-6.1-2.4-9.7
				c0-3.6,0.8-6.9,2.4-9.8s3.8-5.3,6.7-7c2.8-1.7,6.1-2.6,9.7-2.6s6.9,0.9,9.7,2.6c2.8,1.7,5,4.1,6.6,7c1.6,2.9,2.4,6.2,2.4,9.8
				c0,3.6-0.8,6.8-2.4,9.7c-1.6,2.9-3.8,5.2-6.6,6.9C1067,820.5,1063.8,821.4,1060.2,821.4z M1060.2,816.8c2.8,0,5.2-0.6,7.2-1.9
				c2.1-1.3,3.7-3,4.8-5.2s1.7-4.7,1.7-7.5c0-2.8-0.6-5.3-1.7-7.5s-2.7-4-4.8-5.3c-2.1-1.3-4.5-2-7.2-2c-2.8,0-5.2,0.7-7.3,2
				c-2.1,1.3-3.7,3.1-4.8,5.3c-1.2,2.2-1.7,4.7-1.7,7.5c0,2.8,0.6,5.2,1.7,7.5c1.2,2.2,2.8,4,4.8,5.2
				C1055,816.2,1057.4,816.8,1060.2,816.8z"/>
			<path class="st6" d="M1117.8,820.3v-7.6c-0.2,0.8-0.9,1.9-2.1,3.3s-2.8,2.6-4.8,3.8c-2.1,1.1-4.5,1.7-7.3,1.7
				c-3.3,0-6.3-0.8-9.1-2.3c-2.8-1.5-5-3.7-6.7-6.6s-2.5-6.3-2.5-10.4c0-4,0.8-7.5,2.5-10.4s3.9-5.1,6.7-6.6
				c2.8-1.5,5.8-2.3,9.1-2.3c2.8,0,5.2,0.5,7.3,1.6c2,1.1,3.7,2.3,4.9,3.6c1.2,1.4,1.9,2.5,2,3.4v-7.6h5v36.5H1117.8z M1090.4,802.1
				c0,3.1,0.7,5.7,2,8c1.3,2.2,3.1,3.9,5.2,5.1c2.1,1.2,4.3,1.8,6.7,1.8c2.6,0,4.9-0.6,6.9-1.8c2-1.2,3.6-2.9,4.8-5.2
				c1.2-2.2,1.8-4.8,1.8-7.9s-0.6-5.6-1.8-7.9c-1.2-2.2-2.8-3.9-4.8-5.2c-2-1.2-4.3-1.8-6.9-1.8c-2.3,0-4.6,0.6-6.7,1.8
				s-3.8,2.9-5.2,5.1C1091,796.4,1090.4,799,1090.4,802.1z"/>
			<path class="st6" d="M1150.3,821.4c-3.3,0-6.3-0.8-8.9-2.3c-2.7-1.5-4.8-3.7-6.4-6.6s-2.4-6.3-2.4-10.4c0-4,0.8-7.5,2.4-10.4
				s3.7-5.1,6.4-6.6c2.7-1.5,5.6-2.3,8.9-2.3c2.8,0,5.3,0.5,7.5,1.6c2.2,1,3.9,2.2,5.2,3.6c1.3,1.3,2,2.5,2.1,3.5v-32.2h5.2v61.2h-5
				v-7.6c-0.2,0.9-1,2.1-2.2,3.5c-1.3,1.4-3,2.6-5.2,3.6C1155.5,820.8,1153.1,821.4,1150.3,821.4z M1150.9,816.9
				c2.6,0,4.9-0.6,7.1-1.8c2.1-1.2,3.8-2.9,5.1-5.2c1.3-2.2,1.9-4.8,1.9-7.9s-0.6-5.6-1.9-7.9c-1.3-2.2-3-3.9-5.1-5.2
				c-2.1-1.2-4.5-1.8-7.1-1.8c-2.3,0-4.5,0.6-6.5,1.8s-3.6,2.9-4.9,5.1c-1.2,2.2-1.9,4.9-1.9,8c0,3.1,0.6,5.7,1.9,8
				c1.2,2.2,2.9,3.9,4.9,5.1C1146.4,816.3,1148.6,816.9,1150.9,816.9z"/>
		</g>
		<g>
			<path class="st6" d="M494.9,640.3h-13.7v-9.2h37.8v9.2h-13.7v45.6h-10.4V640.3z"/>
			<path class="st6" d="M533.2,685.9h-10.5v-34.1h10.5v5.5H533c0.2-0.7,0.7-1.5,1.6-2.5c0.9-1,2.1-1.9,3.6-2.8
				c1.5-0.8,3.4-1.2,5.6-1.2c1.6,0,3,0.2,4.3,0.7c1.3,0.5,2.2,0.9,2.8,1.3l-4.1,8.6c-0.4-0.4-1-0.9-2-1.4c-1-0.5-2.2-0.7-3.7-0.7
				c-1.7,0-3.2,0.5-4.4,1.4s-2,2.1-2.6,3.5c-0.6,1.4-0.9,2.6-0.9,3.8V685.9z"/>
			<path class="st6" d="M564.7,668.1c0,3,0.6,5.5,1.8,7.3c1.2,1.8,3.2,2.7,5.9,2.7c2.7,0,4.7-0.9,5.9-2.7c1.2-1.8,1.8-4.2,1.8-7.3
				v-16.3h10.4v17.5c0,3.5-0.7,6.6-2.1,9.2c-1.4,2.6-3.5,4.7-6.2,6.1c-2.7,1.5-6,2.2-9.9,2.2c-3.8,0-7.1-0.7-9.8-2.2
				c-2.7-1.5-4.7-3.5-6.2-6.1c-1.4-2.6-2.1-5.7-2.1-9.2v-17.5h10.4V668.1z"/>
			<path class="st6" d="M613.1,650.8c2,0,3.9,0.2,5.7,0.6c1.7,0.4,3.2,0.8,4.4,1.3c1.2,0.5,2,0.9,2.4,1.2l-3.6,6.3
				c-0.6-0.4-1.5-1-3-1.6c-1.4-0.6-3-0.9-4.8-0.9c-1.6,0-2.9,0.3-4,0.8c-1.1,0.5-1.6,1.3-1.6,2.4c0,1.1,0.6,1.9,1.7,2.6
				c1.2,0.6,2.8,1.2,4.9,1.7c1.7,0.4,3.5,0.9,5.1,1.6c1.7,0.7,3.1,1.8,4.2,3.2c1.1,1.4,1.7,3.2,1.7,5.5c0,2.2-0.5,4.1-1.4,5.6
				s-2.2,2.6-3.8,3.5c-1.6,0.9-3.3,1.5-5.2,1.8c-1.9,0.4-3.7,0.5-5.6,0.5c-2.4,0-4.5-0.2-6.3-0.7c-1.8-0.5-3.3-1-4.5-1.6
				c-1.2-0.6-2-1.1-2.5-1.5l3.6-7.1c0.7,0.6,1.9,1.3,3.5,2.1c1.6,0.8,3.4,1.1,5.3,1.1c2,0,3.6-0.3,4.7-1c1.1-0.7,1.7-1.6,1.7-2.8
				c0-0.9-0.3-1.6-0.8-2.1c-0.6-0.5-1.3-1-2.3-1.3s-2.1-0.7-3.4-1c-1.2-0.2-2.4-0.6-3.7-1.1c-1.2-0.5-2.4-1.1-3.5-1.9
				c-1.1-0.8-2-1.8-2.6-3c-0.7-1.2-1-2.6-1-4.3c0-2.2,0.7-4,2.1-5.4c1.4-1.5,3.2-2.6,5.4-3.3C608.2,651.2,610.6,650.8,613.1,650.8z"
				/>
			<path class="st6" d="M630.1,651.8h6.1v-14h10.5v14h8v8.8h-8v12.3c0,1.6,0.3,2.9,0.8,3.8c0.5,0.9,1.4,1.3,2.5,1.3
				c0.9,0,1.6-0.2,2.1-0.5s0.9-0.6,1-0.7l3.7,7.5c-0.2,0.2-0.7,0.5-1.6,0.9c-0.9,0.4-2,0.8-3.4,1.1c-1.4,0.3-3,0.5-4.7,0.5
				c-3.1,0-5.7-0.9-7.8-2.7c-2-1.8-3.1-4.6-3.1-8.4v-15.1h-6.1V651.8z"/>
			<path class="st6" d="M484.3,712.8h34v9.2h-23.7v13.7h23.4v8.9h-23.4v13.9h23.7v9.2h-34V712.8z"/>
			<path class="st6" d="M543,768.5c-3.2,0-6.1-0.8-8.5-2.3c-2.4-1.6-4.4-3.7-5.7-6.4c-1.4-2.7-2.1-5.8-2.1-9.2
				c0-3.4,0.7-6.5,2.1-9.2c1.4-2.7,3.3-4.9,5.7-6.5s5.3-2.4,8.5-2.4c2.3,0,4.3,0.4,6.1,1.1c1.8,0.7,3.2,1.6,4.3,2.7
				c1.1,1,1.7,1.9,1.9,2.7v-28.5h10.6v57.1h-10.5v-5.9c-0.4,1-1.3,2-2.4,3.1c-1.2,1.1-2.6,2-4.4,2.7
				C546.9,768.2,545,768.5,543,768.5z M546,760.2c1.8,0,3.4-0.4,4.8-1.2c1.4-0.8,2.5-2,3.3-3.4c0.8-1.5,1.2-3.1,1.2-5
				s-0.4-3.5-1.2-5c-0.8-1.5-1.9-2.6-3.3-3.4c-1.4-0.8-3-1.2-4.8-1.2c-1.6,0-3.1,0.4-4.5,1.2c-1.4,0.8-2.4,2-3.3,3.4
				c-0.8,1.5-1.2,3.1-1.2,5s0.4,3.6,1.2,5c0.8,1.5,1.9,2.6,3.3,3.4C542.9,759.8,544.3,760.2,546,760.2z"/>
			<path class="st6" d="M583.4,749.8c0,3,0.6,5.5,1.8,7.3c1.2,1.8,3.2,2.7,5.9,2.7c2.7,0,4.7-0.9,5.9-2.7c1.2-1.8,1.8-4.2,1.8-7.3
				v-16.3h10.4V751c0,3.5-0.7,6.6-2.1,9.2c-1.4,2.6-3.5,4.7-6.2,6.1c-2.7,1.5-6,2.2-9.9,2.2c-3.8,0-7.1-0.7-9.8-2.2
				c-2.7-1.5-4.8-3.5-6.2-6.1c-1.4-2.6-2.1-5.7-2.1-9.2v-17.5h10.4V749.8z"/>
			<path class="st6" d="M635.3,760.2c1.8,0,3.3-0.3,4.4-0.9c1.1-0.6,1.9-1.1,2.2-1.4l4.9,7.3c-0.4,0.3-1.1,0.7-2.2,1.3
				c-1.1,0.6-2.4,1-4,1.5s-3.5,0.6-5.5,0.6c-3.6,0-6.8-0.7-9.7-2.2c-2.8-1.5-5.1-3.5-6.7-6.2c-1.6-2.7-2.5-5.9-2.5-9.6
				c0-3.8,0.8-7,2.5-9.7c1.6-2.7,3.9-4.7,6.7-6.2c2.8-1.4,6.1-2.2,9.7-2.2c2,0,3.9,0.2,5.5,0.7c1.6,0.4,2.9,0.9,4,1.5
				c1.1,0.6,1.8,1,2.2,1.4l-5,7.3c-0.2-0.2-0.6-0.5-1.1-0.9c-0.6-0.4-1.3-0.7-2.2-1.1s-2-0.5-3.2-0.5c-1.5,0-3,0.4-4.3,1.2
				c-1.4,0.8-2.5,1.9-3.3,3.4c-0.9,1.4-1.3,3.1-1.3,5.1c0,1.9,0.4,3.6,1.3,5.1c0.9,1.5,2,2.6,3.3,3.4
				C632.3,759.8,633.8,760.2,635.3,760.2z"/>
			<path class="st6" d="M679.5,767.5v-5.9c-0.2,0.6-0.9,1.5-1.9,2.6c-1,1.1-2.4,2.1-4.1,3c-1.7,0.9-3.8,1.3-6.1,1.3
				c-3.3,0-6.2-0.8-8.7-2.3c-2.5-1.6-4.5-3.7-5.9-6.4c-1.4-2.7-2.1-5.8-2.1-9.2c0-3.4,0.7-6.5,2.1-9.2c1.4-2.7,3.4-4.9,5.9-6.5
				c2.5-1.6,5.4-2.4,8.7-2.4c2.3,0,4.2,0.4,5.9,1.1s3,1.6,4.1,2.7c1,1,1.7,1.9,2,2.7v-5.5h10.5v34.1H679.5z M661,750.5
				c0,1.9,0.4,3.6,1.3,5c0.9,1.5,2,2.6,3.4,3.4c1.4,0.8,2.9,1.2,4.6,1.2c1.7,0,3.3-0.4,4.6-1.2c1.4-0.8,2.4-2,3.2-3.4
				c0.8-1.5,1.2-3.1,1.2-5s-0.4-3.5-1.2-5s-1.9-2.6-3.2-3.4c-1.4-0.8-2.9-1.2-4.6-1.2c-1.7,0-3.2,0.4-4.6,1.2
				c-1.4,0.8-2.5,2-3.4,3.4C661.4,746.9,661,748.6,661,750.5z"/>
			<path class="st6" d="M695.6,733.5h6.1v-14h10.5v14h8v8.8h-8v12.3c0,1.6,0.3,2.9,0.8,3.8c0.5,0.9,1.4,1.3,2.5,1.3
				c0.9,0,1.6-0.2,2.1-0.5s0.9-0.6,1-0.7l3.7,7.5c-0.2,0.2-0.7,0.5-1.6,0.9c-0.9,0.4-2,0.8-3.4,1.1c-1.4,0.3-3,0.5-4.7,0.5
				c-3.1,0-5.7-0.9-7.8-2.7c-2-1.8-3.1-4.6-3.1-8.4v-15.1h-6.1V733.5z"/>
			<path class="st6" d="M733.6,724.7c-1.7,0-3.2-0.6-4.4-1.8c-1.2-1.2-1.8-2.7-1.8-4.4c0-1.7,0.6-3.2,1.8-4.4
				c1.2-1.2,2.7-1.9,4.4-1.9c1.1,0,2.2,0.3,3.1,0.9c0.9,0.6,1.7,1.3,2.3,2.3s0.9,2,0.9,3.2c0,1.7-0.6,3.1-1.8,4.4
				C736.8,724.1,735.3,724.7,733.6,724.7z M728.2,767.5v-34.1h10.5v34.1H728.2z"/>
			<path class="st6" d="M765,768.5c-3.6,0-6.9-0.8-9.7-2.3c-2.8-1.5-5.1-3.7-6.7-6.4c-1.6-2.7-2.4-5.8-2.4-9.2s0.8-6.5,2.4-9.3
				c1.6-2.7,3.8-4.9,6.7-6.5c2.8-1.6,6.1-2.4,9.7-2.4c3.7,0,6.9,0.8,9.7,2.4c2.8,1.6,5,3.7,6.6,6.5c1.6,2.7,2.4,5.8,2.4,9.3
				s-0.8,6.5-2.4,9.2c-1.6,2.7-3.8,4.8-6.6,6.4C771.9,767.8,768.7,768.5,765,768.5z M765,759.8c1.7,0,3.3-0.4,4.5-1.2s2.3-1.9,3-3.3
				c0.7-1.4,1.1-3,1.1-4.8c0-1.8-0.4-3.4-1.1-4.8c-0.7-1.4-1.7-2.5-3-3.3s-2.8-1.2-4.5-1.2s-3.3,0.4-4.5,1.2s-2.3,1.9-3,3.3
				s-1.1,3-1.1,4.8c0,1.8,0.4,3.4,1.1,4.8s1.7,2.5,3,3.3S763.3,759.8,765,759.8z"/>
			<path class="st6" d="M812.4,732.5c2.3,0,4.6,0.5,6.8,1.4s4,2.5,5.5,4.5c1.4,2.1,2.1,4.8,2.1,8.1v20.9h-10.6v-19.1
				c0-2.8-0.7-4.9-2-6.2c-1.3-1.4-3-2-5.2-2c-1.4,0-2.7,0.4-4,1.1c-1.3,0.8-2.3,1.8-3.1,3.2c-0.8,1.3-1.2,2.9-1.2,4.6v18.5h-10.5
				v-34.1h10.5v5.4c0.3-0.9,1-1.9,2.1-2.9c1.1-1,2.4-1.8,4.1-2.5C808.7,732.8,810.5,732.5,812.4,732.5z"/>
			<path class="st6" d="M501.6,794.5H512l21.1,54.8h-11l-4.3-11.8h-21.9l-4.4,11.8h-11.1L501.6,794.5z M499.2,828.2h15.1l-7.5-21.2
				h-0.1L499.2,828.2z"/>
			<path class="st6" d="M564.7,849.2v-5.9c-0.2,0.6-0.9,1.5-1.9,2.6c-1,1.1-2.4,2.1-4.1,3s-3.8,1.3-6.1,1.3c-3.3,0-6.2-0.8-8.7-2.3
				c-2.5-1.6-4.5-3.7-5.9-6.4c-1.4-2.7-2.1-5.8-2.1-9.2c0-3.4,0.7-6.5,2.1-9.2c1.4-2.7,3.4-4.9,5.9-6.5s5.4-2.4,8.7-2.4
				c2.3,0,4.2,0.4,5.9,1.1s3,1.6,4.1,2.7c1,1,1.7,1.9,2,2.7v-5.5h10.5v34.1H564.7z M555.2,867.4c-2.5,0-4.9-0.2-7.2-0.7
				c-2.3-0.5-4.3-1.2-6.2-2.2c-1.9-1-3.4-2.3-4.6-3.9l6.4-6.5c0.6,0.7,1.3,1.5,2.3,2.3c0.9,0.8,2.1,1.4,3.5,1.9
				c1.4,0.5,3.2,0.8,5.4,0.8c2,0,3.8-0.4,5.3-1.2c1.5-0.8,2.6-1.9,3.4-3.3c0.8-1.4,1.2-3.1,1.2-5v-1h10.3v1.6c0,3.8-0.9,6.9-2.7,9.5
				c-1.8,2.6-4.1,4.5-7.1,5.8C562.3,866.8,558.9,867.4,555.2,867.4z M546.2,832.2c0,1.9,0.4,3.6,1.3,5s2,2.6,3.4,3.4
				c1.4,0.8,2.9,1.2,4.6,1.2c1.7,0,3.3-0.4,4.6-1.2s2.4-2,3.2-3.4c0.8-1.5,1.2-3.1,1.2-5s-0.4-3.5-1.2-5c-0.8-1.5-1.9-2.6-3.2-3.4
				c-1.4-0.8-2.9-1.2-4.6-1.2c-1.7,0-3.2,0.4-4.6,1.2c-1.4,0.8-2.5,2-3.4,3.4C546.7,828.6,546.2,830.3,546.2,832.2z"/>
			<path class="st6" d="M591.7,834.5c0.1,1.5,0.5,2.9,1.2,4.1c0.7,1.2,1.8,2.2,3.3,2.9c1.4,0.7,3.1,1,5.2,1c1.8,0,3.3-0.2,4.7-0.7
				s2.5-1,3.5-1.6c1-0.6,1.7-1.3,2.1-1.9l4.4,6.4c-0.8,1-1.8,1.9-3.1,2.7c-1.3,0.8-2.9,1.5-4.9,1.9c-2,0.5-4.4,0.7-7.4,0.7
				c-3.7,0-7-0.7-9.8-2.2s-5-3.6-6.6-6.3c-1.6-2.8-2.4-6.1-2.4-9.9c0-3.3,0.7-6.3,2.1-9c1.4-2.7,3.5-4.8,6.2-6.3
				c2.7-1.5,5.9-2.3,9.7-2.3c3.6,0,6.7,0.7,9.3,2.1c2.6,1.4,4.6,3.4,6.1,6c1.4,2.6,2.2,5.8,2.2,9.6c0,0.2,0,0.7,0,1.4
				c0,0.7,0,1.1-0.1,1.3H591.7z M607.5,828c0-0.9-0.3-1.8-0.8-2.9c-0.5-1-1.3-1.9-2.4-2.6c-1.1-0.7-2.5-1.1-4.3-1.1
				c-1.8,0-3.3,0.4-4.4,1.1s-2,1.6-2.6,2.6c-0.6,1-0.9,2-1,2.9H607.5z"/>
			<path class="st6" d="M646.2,814.2c2.3,0,4.6,0.5,6.8,1.4c2.2,1,4,2.5,5.5,4.5c1.4,2.1,2.1,4.8,2.1,8.1v20.9h-10.6v-19.1
				c0-2.8-0.7-4.9-2-6.2c-1.3-1.4-3-2-5.2-2c-1.4,0-2.7,0.4-4,1.1c-1.3,0.8-2.3,1.8-3.1,3.2c-0.8,1.3-1.2,2.9-1.2,4.6v18.5h-10.5
				v-34.1h10.5v5.4c0.3-0.9,1-1.9,2.1-2.9c1.1-1,2.4-1.8,4.1-2.5C642.5,814.5,644.3,814.2,646.2,814.2z"/>
			<path class="st6" d="M686.4,841.8c1.8,0,3.3-0.3,4.4-0.9c1.1-0.6,1.9-1.1,2.2-1.4l4.9,7.3c-0.4,0.3-1.1,0.7-2.2,1.3
				c-1.1,0.6-2.4,1-4,1.5c-1.6,0.4-3.5,0.6-5.5,0.6c-3.6,0-6.8-0.7-9.7-2.2c-2.8-1.5-5.1-3.5-6.7-6.2c-1.6-2.7-2.5-5.9-2.5-9.6
				c0-3.8,0.8-7,2.5-9.7c1.6-2.7,3.9-4.7,6.7-6.2c2.8-1.4,6.1-2.2,9.7-2.2c2,0,3.9,0.2,5.5,0.7c1.6,0.4,2.9,0.9,4,1.5
				c1.1,0.6,1.8,1,2.2,1.4l-5,7.3c-0.2-0.2-0.6-0.5-1.1-0.9c-0.6-0.4-1.3-0.7-2.2-1.1c-0.9-0.3-2-0.5-3.2-0.5c-1.5,0-3,0.4-4.3,1.2
				c-1.4,0.8-2.5,1.9-3.3,3.4c-0.9,1.4-1.3,3.1-1.3,5.1c0,1.9,0.4,3.6,1.3,5.1c0.9,1.5,2,2.6,3.3,3.4
				C683.4,841.4,684.8,841.8,686.4,841.8z"/>
			<path class="st6" d="M719.8,840l10.1-24.8h10.4L717,866.5h-10.6l7.8-17.3l-14.1-34.1h10.5L719.8,840z"/>
		</g>
		<g>
			<path class="st6" d="M328.1,804.3c-1.2,0-2.1-1-2.1-2.1l0.4-142.2c0-16.1,13.1-29.1,29.2-29s29.1,13.1,29,29.2l0,0l-0.4,142.2
				c0,1.2-1,2.1-2.1,2.1s-2.1-1-2.1-2.1l0.4-142.2c0-13.7-11.1-24.9-24.8-24.9c-13.7,0-24.9,11.1-24.9,24.8l0,0l-0.4,142.2
				C330.2,803.3,329.3,804.3,328.1,804.3z"/>
			<path class="st6" d="M370.2,801l0.4-148.8c0-0.2,0.2-0.4,0.4-0.4c0.2,0,0.4,0.2,0.4,0.4L371.1,801c0,0.2-0.2,0.4-0.4,0.4
				C370.4,801.4,370.2,801.3,370.2,801z"/>
			<path class="st6" d="M360,801l0.4-148.8c0-0.2,0.2-0.4,0.4-0.4c0.2,0,0.4,0.2,0.4,0.4L360.9,801c0,0.2-0.2,0.4-0.4,0.4
				C360.2,801.4,360,801.2,360,801z"/>
			<path class="st6" d="M349.8,801l0.4-148.8c0-0.2,0.2-0.4,0.4-0.4c0.2,0,0.4,0.2,0.4,0.4L350.7,801c0,0.2-0.2,0.4-0.4,0.4
				C350,801.4,349.8,801.2,349.8,801z"/>
			<path class="st6" d="M339.6,800.9l0.4-148.8c0-0.2,0.2-0.4,0.4-0.4c0.2,0,0.4,0.2,0.4,0.4l-0.4,148.8c0,0.2-0.2,0.4-0.4,0.4
				C339.8,801.4,339.6,801.2,339.6,800.9z"/>
			<path class="st6" d="M449.5,674.3c1.2,0,2.1,1,2.1,2.1l-0.4,142.2c0,16.1-13.1,29.1-29.2,29c-16.1,0-29.1-13.1-29-29.2l0,0
				l0.4-142.2c0-1.2,1-2.1,2.1-2.1c1.2,0,2.1,1,2.1,2.1l-0.4,142.2c0,13.7,11.1,24.9,24.8,24.9c13.7,0,24.9-11.1,24.9-24.8l0,0
				l0.4-142.2C447.4,675.3,448.3,674.3,449.5,674.3z"/>
			<path class="st6" d="M407.4,677.6L407,826.4c0,0.2-0.2,0.4-0.4,0.4c-0.2,0-0.4-0.2-0.4-0.4l0.4-148.8c0-0.2,0.2-0.4,0.4-0.4
				C407.2,677.2,407.4,677.4,407.4,677.6z"/>
			<path class="st6" d="M417.6,677.6l-0.4,148.8c0,0.2-0.2,0.4-0.4,0.4c-0.2,0-0.4-0.2-0.4-0.4l0.4-148.8c0-0.2,0.2-0.4,0.4-0.4
				C417.4,677.2,417.6,677.4,417.6,677.6z"/>
			<path class="st6" d="M427.8,677.7l-0.4,148.8c0,0.2-0.2,0.4-0.4,0.4c-0.2,0-0.4-0.2-0.4-0.4l0.4-148.8c0-0.2,0.2-0.4,0.4-0.4
				C427.6,677.2,427.8,677.4,427.8,677.7z"/>
			<path class="st6" d="M438,677.7l-0.4,148.8c0,0.2-0.2,0.4-0.4,0.4c-0.2,0-0.4-0.2-0.4-0.4l0.4-148.8c0-0.2,0.2-0.4,0.4-0.4
				C437.8,677.3,438,677.4,438,677.7z"/>
		</g>
		<line class="st16" x1="866" y1="630.9" x2="866" y2="883"/>
	</g>
</g>
<g id="Layer_3" class="st0">
</g>
</svg>
